# xmcd CD database file
#
# Track frame offsets:
#	150
#	24645
#	45545
#
# Disc length: 933 seconds
#
# Revision: 0
# Processed by: cddbd v1.5.1PL0 Copyright (c) Steve Scherf et al.
# Submitted via: CDex 1.51
#
DISCID=1c03a303
DTITLE=Lindberg - every little thing every precious thing
DYEAR=1996
DGENRE=J-POP
TTITLE0=every little thing every precious thing
TTITLE1=アジサイ
TTITLE2=every little thing every precious thing(カラオケ)
EXTD=YEAR: 1996
EXTT0=
EXTT1=
EXTT2=
PLAYORDER=
